<?xml version="1.0" standalone="no"?>
<!DOCTYPE svg PUBLIC "-//W3C//DTD SVG 20010904//EN"
 "http://www.w3.org/TR/2001/REC-SVG-20010904/DTD/svg10.dtd">
<svg version="1.0" xmlns="http://www.w3.org/2000/svg"
 width="512.000000pt" height="512.000000pt" viewBox="0 0 512.000000 512.000000"
 preserveAspectRatio="xMidYMid meet">

<g transform="translate(0.000000,512.000000) scale(0.100000,-0.100000)"
fill="#000000" stroke="none">
<path d="M2166 4795 c-461 -65 -857 -265 -1103 -557 -217 -256 -316 -509 -329
-838 -4 -89 -2 -182 5 -240 10 -80 50 -305 67 -376 4 -17 -2 -23 -38 -33 -72
-22 -123 -65 -155 -128 -25 -53 -28 -67 -27 -158 2 -109 44 -353 89 -511 59
-206 165 -362 315 -464 47 -32 50 -37 50 -94 0 -137 39 -239 168 -446 522
-834 1216 -1086 1857 -672 260 167 526 476 710 824 58 111 84 204 85 309 0 44
2 47 56 84 131 91 240 249 298 433 36 117 97 442 99 532 1 41 -5 97 -13 124
-19 67 -87 138 -157 162 -29 10 -53 23 -53 29 0 5 13 78 30 160 43 216 55 378
41 529 -31 333 -151 594 -383 832 -55 56 -134 128 -176 159 -212 157 -482 269
-786 326 -145 28 -501 35 -650 14z m541 -100 c220 -29 422 -90 607 -182 387
-194 647 -521 725 -911 43 -212 37 -369 -24 -683 -19 -96 -35 -187 -35 -202 0
-30 11 -36 95 -56 86 -21 121 -56 136 -137 10 -53 0 -135 -42 -351 -62 -319
-137 -463 -306 -590 -42 -32 -83 -69 -89 -83 -7 -14 -17 -74 -23 -134 -10
-104 -13 -113 -67 -215 -111 -211 -265 -420 -425 -580 -571 -571 -1227 -507
-1781 175 -88 108 -223 316 -279 428 -48 96 -51 107 -56 201 -3 55 -12 112
-19 126 -7 15 -42 47 -78 73 -92 65 -160 147 -212 251 -57 117 -85 219 -125
454 -29 172 -32 198 -21 249 9 44 20 65 46 89 33 31 89 53 133 53 26 0 53 25
53 48 0 9 -16 96 -35 192 -63 317 -69 486 -25 702 116 566 630 988 1321 1082
141 19 382 19 526 1z"/>
<path d="M3005 4331 c-107 -27 -175 -114 -175 -223 0 -63 28 -125 75 -167 l34
-29 -63 -224 -63 -223 -379 0 -378 0 -60 187 -59 186 36 35 c48 44 67 92 67
164 -1 131 -92 223 -222 223 -157 -1 -264 -148 -214 -297 28 -84 118 -153 200
-153 l35 0 61 -191 c34 -105 60 -195 58 -199 -5 -14 -232 -270 -239 -270 -4 0
-54 22 -112 49 l-104 49 0 55 c0 198 -233 298 -381 163 -55 -49 -83 -148 -63
-222 44 -163 246 -223 371 -109 l25 23 97 -47 97 -46 -162 -178 -163 -178 -54
-3 c-116 -6 -200 -83 -216 -199 -25 -178 173 -312 331 -224 26 15 52 24 59 20
6 -4 55 -40 109 -80 l97 -74 -177 -142 c-115 -92 -179 -149 -181 -163 -4 -27
22 -54 51 -54 13 0 88 53 180 126 87 70 160 124 163 121 3 -2 18 -208 33 -456
20 -313 32 -455 41 -466 13 -16 47 -20 66 -7 7 4 82 149 169 322 86 173 159
317 161 319 3 3 50 -40 104 -94 l100 -100 0 -150 0 -151 -35 -13 c-45 -16
-103 -73 -122 -119 -20 -47 -18 -143 3 -184 103 -204 400 -159 430 65 13 96
-41 194 -131 236 l-45 21 0 143 0 142 105 105 c57 57 107 102 109 99 3 -2 89
-140 192 -304 103 -165 192 -303 198 -307 18 -12 53 -9 65 6 7 8 34 196 62
418 27 221 52 414 55 427 5 22 15 15 122 -92 119 -119 149 -136 180 -105 28
28 10 55 -129 194 l-142 142 197 233 196 234 0 132 0 133 38 15 c142 60 184
242 81 359 -105 119 -287 96 -363 -46 l-31 -58 -122 0 -121 0 -109 128 c-59
70 -114 135 -122 145 -12 16 -7 45 50 247 53 192 67 230 82 230 45 0 109 25
148 58 151 129 76 372 -121 395 -25 3 -58 2 -75 -2z m115 -116 c86 -44 75
-183 -17 -221 -62 -26 -134 2 -159 63 -18 42 -18 67 1 107 29 61 110 84 175
51z m-1240 -70 c37 -19 60 -63 60 -115 0 -32 -7 -48 -34 -78 -31 -33 -39 -37
-84 -37 -62 0 -101 26 -121 80 -40 103 78 202 179 150z m-556 -729 c51 -21 76
-60 76 -118 0 -43 -4 -54 -34 -84 -30 -30 -40 -34 -84 -34 -144 0 -176 185
-42 239 34 13 46 13 84 -3z m1615 -192 c94 -113 111 -138 100 -148 -8 -7 -117
-102 -243 -211 l-228 -198 -32 12 c-86 35 -114 34 -238 -12 -6 -2 -488 413
-488 420 0 2 54 64 120 138 l121 135 387 0 387 -1 114 -135z m754 -39 c93 -61
57 -210 -54 -222 -83 -9 -139 41 -139 125 0 94 112 151 193 97z m-273 -200
c24 -49 68 -91 118 -112 l32 -13 0 -114 0 -114 -195 -234 -196 -233 -232 -127
c-128 -69 -235 -123 -238 -120 -4 4 -39 89 -78 188 l-71 182 35 36 c22 23 41
59 51 94 15 51 16 63 2 114 l-14 57 253 220 254 221 129 0 128 0 22 -45z
m-1330 -278 c74 -66 135 -122 135 -125 -1 -4 -7 -27 -14 -52 -18 -61 -1 -136
45 -196 l35 -45 -77 -177 c-43 -97 -80 -180 -84 -185 -3 -4 -141 95 -306 219
-164 124 -307 232 -316 238 -15 11 -16 18 -7 51 16 58 -3 132 -47 183 l-35 41
161 176 161 175 107 -92 c58 -51 167 -146 242 -211z m-724 -141 c30 -30 34
-40 34 -85 0 -63 -34 -107 -94 -121 -128 -28 -205 130 -105 215 24 19 42 25
81 25 44 0 54 -4 84 -34z m1135 11 c84 -57 62 -185 -37 -217 -63 -21 -134 20
-154 89 -21 73 41 151 120 151 22 0 51 -9 71 -23z m43 -528 l79 -201 -99 -99
c-54 -54 -103 -99 -109 -99 -6 0 -55 45 -109 99 l-99 99 89 201 88 201 40 0
41 0 79 -201z m-602 -120 c68 -51 127 -95 131 -99 5 -4 -46 -115 -112 -246
-66 -132 -121 -237 -122 -234 0 3 -11 157 -23 343 -16 263 -18 336 -9 332 7
-2 68 -46 135 -96z m1164 -241 c-23 -186 -45 -340 -48 -343 -3 -3 -72 101
-153 231 -81 130 -143 240 -138 245 10 10 376 209 379 206 1 -1 -17 -154 -40
-339z m-618 -556 c95 -62 47 -221 -68 -224 -96 -3 -159 97 -116 181 34 66 119
86 184 43z"/>
</g>
</svg>
